PathFileType	4	(X/Y/Z)	D:\TRACE\v60_Jaco2_6-2-23\JustArmDRS_Motion2_4-platform.trc
DataRate	CameraRate	NumFrames	NumMarkers	Units	OrigDataRate	OrigDataStartFrame	OrigNumFrames
100.00	100.00	      47	5	mm	100.00	2589	      6902
Frame#	Time	Left_Front			Right_Front			Left_Aft			Right_Aft			Post			
		X1	Y1	Z1	X2	Y2	Z2	X3	Y3	Z3	X4	Y4	Z4	X5	Y5	Z5	

2589	25.880	-830.34680	8.27763	-639.04620	739.59784	9.25194	-644.24982	-738.61432	8.46226	496.27106	703.74658	7.56324	506.01761	-43.97242	1306.95654	-963.20038	
2590	25.890	-831.65021	6.56135	-639.32483	738.45361	7.74306	-644.48242	-739.71875	9.34534	495.98004	702.70776	8.49950	505.66995	-45.13653	1304.86890	-966.01501	
2591	25.900	-832.78510	5.48658	-639.44305	737.28485	6.19341	-645.00092	-740.72638	10.48271	495.55930	701.80017	9.42990	505.43024	-46.08437	1302.78662	-969.01624	
2592	25.910	-833.53180	3.81544	-639.86554	736.60199	5.03311	-645.25269	-741.54645	11.42126	495.29181	700.75189	10.52183	505.19046	-47.07626	1300.54993	-972.15198	
2593	25.920	-834.47430	2.60773	-640.20502	735.56476	3.46954	-645.65753	-742.63580	12.46112	494.97998	699.76056	11.46148	504.90088	-48.06985	1298.76135	-975.02368	
2594	25.930	-835.28516	1.09541	-640.51532	734.54633	2.10450	-645.83490	-743.43958	13.29045	494.56180	698.81232	12.48747	504.30063	-48.93946	1296.36011	-978.27258	
2595	25.940	-836.37646	-0.37780	-640.80261	733.58557	0.63599	-646.11914	-744.49780	14.40213	494.34296	697.65161	13.55003	504.06787	-50.04521	1294.29663	-981.32703	
2596	25.950	-837.48663	-1.73498	-641.08533	732.80145	-0.59534	-646.43286	-745.32800	15.18286	494.00604	696.90558	14.47705	503.72272	-51.24675	1292.32764	-984.62970	
2597	25.960	-838.32166	-2.78467	-641.56091	731.88965	-2.18425	-646.90320	-746.35211	16.37329	493.72095	696.04761	15.56696	503.48685	-51.71844	1290.19775	-987.75238	
2598	25.970	-839.04523	-4.58355	-641.56940	731.10242	-3.23848	-647.04498	-747.01306	17.07643	493.37158	695.28796	16.46730	503.11774	-52.77577	1288.08521	-991.07184	
2599	25.980	-839.81171	-5.95826	-641.89111	730.23419	-4.68513	-647.39368	-748.01404	18.20812	493.06787	694.59204	17.59772	502.65866	-53.41329	1285.92285	-993.90155	
2600	25.990	-840.55518	-7.09026	-642.42969	729.37079	-6.18936	-647.52954	-748.76538	18.96449	492.70267	693.43127	18.43806	502.27820	-54.37534	1283.98828	-996.62360	
2601	26.000	-841.41144	-8.79060	-642.50745	728.56415	-7.39334	-647.85266	-749.57520	20.07469	492.25372	692.81848	19.36470	502.02008	-55.25241	1282.02295	-999.51135	
2602	26.010	-842.45349	-10.09797	-642.74054	727.82294	-8.98496	-648.19653	-750.37482	20.77708	491.95755	692.21765	20.33567	501.73047	-55.98174	1279.77722	-1002.20129	
2603	26.020	-843.14209	-11.18198	-643.09546	727.01648	-9.96798	-648.62970	-751.35040	21.97545	491.61774	691.26898	21.25989	501.34665	-56.81173	1277.92688	-1004.92462	
2604	26.030	-843.84253	-12.76859	-643.28833	726.37177	-11.44253	-648.70422	-751.96069	22.60748	491.35666	690.45703	22.24025	501.03009	-57.32949	1275.76501	-1007.40039	
2605	26.040	-844.04590	-14.53961	-643.73285	725.58173	-12.92061	-649.11255	-752.66168	23.50358	491.03870	689.79028	23.17268	500.60504	-58.14850	1273.80981	-1010.08167	
2606	26.050	-844.63892	-15.75529	-643.77576	724.90613	-13.84156	-649.24030	-753.44342	24.52803	490.74985	689.25488	24.12156	500.30261	-58.72889	1271.68481	-1013.09760	
2607	26.060	-845.52588	-16.99361	-644.34528	724.21686	-15.54439	-649.58875	-754.03186	25.26464	490.37216	688.58258	24.95984	500.10999	-59.54003	1269.81384	-1015.88196	
2608	26.070	-846.12787	-18.20959	-644.56476	723.74457	-16.56931	-649.63324	-754.56903	26.33777	490.05069	687.98572	25.89448	499.66061	-59.89241	1267.65674	-1018.53888	
2609	26.080	-846.76532	-19.25546	-644.87634	722.80035	-17.89889	-650.10815	-755.06311	27.02750	489.62619	687.31250	26.81866	499.35086	-60.65919	1265.77100	-1021.27954	
2610	26.090	-847.53674	-20.35306	-644.93774	722.25122	-19.13911	-650.38013	-755.71008	28.01120	489.15274	686.82880	27.56358	498.98053	-61.31546	1263.80298	-1024.28821	
2611	26.100	-848.17535	-21.71271	-645.23346	721.81757	-20.44565	-650.65845	-756.29596	28.73524	488.89191	686.19824	28.49265	498.62366	-61.93339	1261.99866	-1027.09607	
2612	26.110	-848.63263	-22.72839	-645.30518	721.38873	-21.55160	-650.99597	-757.15118	29.73347	488.53238	685.82813	29.45819	498.39029	-62.53151	1260.02490	-1029.66675	
2613	26.120	-849.04358	-24.01338	-645.61182	720.99335	-22.73359	-651.14667	-757.37427	30.39143	488.47482	685.30579	30.31146	498.08527	-62.76664	1258.21252	-1032.09644	
2614	26.130	-849.37579	-25.35015	-645.88086	720.56140	-24.03901	-651.33002	-757.87646	31.31029	488.15387	684.95129	31.00979	497.73804	-63.28296	1256.38562	-1034.56152	
2615	26.140	-849.88232	-26.52983	-646.05328	720.09381	-25.05487	-651.57874	-758.29541	32.20466	487.88907	684.40729	31.77785	497.50528	-63.50831	1254.38196	-1037.09766	
2616	26.150	-850.16156	-27.39418	-646.43097	719.73602	-26.21486	-651.75555	-758.63770	33.07976	487.76611	684.20013	32.62381	497.16345	-64.08857	1252.71179	-1039.39880	
2617	26.160	-850.64044	-28.77857	-646.45087	719.58905	-27.46351	-651.85547	-759.16669	33.91257	487.28329	683.82147	33.50319	496.75824	-64.35186	1250.66943	-1041.54932	
2618	26.170	-850.70496	-29.86825	-646.71527	719.31946	-28.48960	-651.99316	-759.51733	34.67981	486.90094	683.46350	34.21119	496.52072	-64.54160	1249.20728	-1043.79053	
2619	26.180	-850.98828	-31.05226	-646.89496	719.03717	-29.57067	-652.33765	-759.04291	34.71434	486.40445	683.22455	34.94358	496.16052	-64.71037	1247.33105	-1046.27185	
2620	26.190	-851.03326	-31.89221	-647.16925	718.89899	-30.59466	-652.62006	-759.23761	35.59193	486.06451	683.23059	35.84067	495.98407	-64.92022	1245.61450	-1048.29431	
2621	26.200	-851.13623	-33.25948	-647.17810	718.79004	-31.80172	-652.77313	-758.93787	36.07251	485.74030	683.29919	36.58258	495.68607	-65.37511	1243.83813	-1049.88281	
2622	26.210	-851.12555	-34.32154	-647.32861	718.84033	-32.86710	-653.02515	-758.82312	36.51546	485.64157	682.86456	37.37522	495.47104	-65.64608	1242.12683	-1052.17493	
2623	26.220	-851.12567	-34.98769	-647.69330	718.74799	-33.77371	-653.20367	-758.98407	37.24930	485.25351	683.08289	37.98020	495.07294	-65.42839	1240.71570	-1054.27759	
2624	26.230	-851.00818	-36.39549	-647.84430	718.76874	-34.75004	-653.39148	-759.02850	38.14637	485.11276	683.04169	38.65268	494.72647	-65.53355	1239.13574	-1056.46643	
2625	26.240	-851.07751	-37.24938	-647.78314	718.75964	-35.72737	-653.40704	-758.99133	38.86575	484.80411	683.00299	39.28045	494.44186	-65.67037	1237.41602	-1058.57642	
2626	26.250	-851.04651	-38.18120	-648.04333	718.77808	-36.78398	-653.74280	-759.03290	39.35556	484.68076	682.96021	39.97264	494.25479	-65.32273	1235.98315	-1061.03979	
2627	26.260	-850.90802	-39.19376	-648.34760	718.71747	-37.57910	-653.86444	-759.15686	40.09578	484.31604	683.03076	40.59830	493.89917	-65.01013	1234.22852	-1063.07837	
2628	26.270	-850.78290	-39.82689	-648.49304	719.02600	-38.51137	-653.85004	-759.09253	40.65697	483.99979	683.29388	41.25775	493.69431	-65.02813	1233.10718	-1065.18774	
2629	26.280	-850.68762	-40.93224	-648.51923	719.15717	-39.52012	-654.14844	-758.81610	41.37233	483.66385	683.31934	41.98033	493.58185	-64.85517	1231.76221	-1066.99304	
2630	26.290	-850.30377	-41.78830	-648.83527	719.63782	-40.20847	-654.20294	-758.38330	41.84470	483.44565	684.00262	42.48741	493.13824	-64.75773	1230.19629	-1068.86743	
2631	26.300	-849.89758	-42.55518	-648.89105	720.01544	-41.01452	-654.22607	-758.12317	42.43520	483.22916	684.40924	43.09755	493.05225	-64.00757	1228.74744	-1070.60034	
2632	26.310	-849.76068	-43.49238	-649.03925	720.36969	-41.89665	-654.30804	-757.86267	43.08509	482.98053	684.68884	43.77758	492.80289	-63.85281	1227.45581	-1072.41602	
2633	26.320	-849.48468	-44.14110	-649.16614	720.59918	-42.84024	-654.56842	-757.45178	43.63428	482.80685	684.83545	44.16786	492.49432	-63.37570	1225.94458	-1074.27649	
2634	26.330	-848.95813	-44.98865	-649.20447	720.98987	-43.50151	-654.79395	-757.11603	44.03736	482.53467	685.17731	44.70835	492.24728	-63.43102	1224.81506	-1075.99365	
2635	26.340	-848.44836	-45.84284	-649.28558	721.38391	-44.11934	-654.76862	-756.64380	44.57693	482.41327	685.59845	45.24855	492.01868	-63.21429	1223.53918	-1077.72546	
